<?xml version="1.0" encoding="UTF-8" standalone="no"?>
<!-- Created with Inkscape (http://www.inkscape.org/) -->

<svg
   version="1.1"
   id="svg1"
   width="1536"
   height="1536"
   viewBox="0 0 1536 1536"
   sodipodi:docname="VisSec_blue.svg"
   inkscape:version="1.4.2 (f4327f4, 2025-05-13)"
   xmlns:inkscape="http://www.inkscape.org/namespaces/inkscape"
   xmlns:sodipodi="http://sodipodi.sourceforge.net/DTD/sodipodi-0.dtd"
   xmlns="http://www.w3.org/2000/svg"
   xmlns:svg="http://www.w3.org/2000/svg">
  <defs
     id="defs1" />
  <sodipodi:namedview
     id="namedview1"
     pagecolor="#8a8a8a"
     bordercolor="#000000"
     borderopacity="0.25"
     inkscape:showpageshadow="2"
     inkscape:pageopacity="0.0"
     inkscape:pagecheckerboard="0"
     inkscape:deskcolor="#d1d1d1"
     inkscape:zoom="0.55664062"
     inkscape:cx="855.12983"
     inkscape:cy="768.00001"
     inkscape:window-width="1920"
     inkscape:window-height="1057"
     inkscape:window-x="-8"
     inkscape:window-y="-8"
     inkscape:window-maximized="1"
     inkscape:current-layer="g1">
    <inkscape:page
       x="0"
       y="0"
       inkscape:label="1"
       id="page1"
       width="1536"
       height="1536"
       margin="0"
       bleed="0" />
  </sodipodi:namedview>
  <g
     id="g1"
     inkscape:groupmode="layer"
     inkscape:label="1">
    <path
       id="path8"
       style="fill:#007ac2;fill-opacity:1;fill-rule:nonzero;stroke:none;stroke-width:1.33494"
       d="M 456.45312 27.035156 L 21.328125 462.5 L 21.636719 1078.5742 L 457.20312 1514.3691 L 1072.875 1514.6094 L 1508 1079.1445 L 1507.6914 463.07422 L 1072.123 27.275391 L 456.45312 27.035156 z M 464.82227 59.546875 L 762.78125 59.546875 L 1060.7461 59.546875 L 1269.75 266.09375 L 1478.7539 472.64062 L 1478.5527 766.5 L 1478.3496 1060.3555 L 1269.1309 1268.9434 L 1059.9121 1477.5312 L 764.96484 1477.5312 L 470.01562 1477.5312 L 258.92578 1268.9258 L 47.84375 1060.3223 L 47.84375 769.04102 L 47.84375 477.75391 L 256.33398 268.65039 L 464.82227 59.546875 z " />
    <path
       id="path10"
       style="fill:#007ac2;fill-opacity:1;fill-rule:nonzero;stroke:none"
       d="M 361.1045 1075.0357 L 67.715334 782.50344 L 67.926271 368.64552 L 361.60841 75.887697 L 776.73049 75.729494 L 1070.1211 368.26173 L 1069.9102 782.12111 L 776.22658 1074.8789 L 361.1045 1075.0357 z M 373.71827 1049.1753 L 770.10207 1049.0274 L 1050.5274 771.42189 L 1050.7266 378.97999 L 770.58254 101.58985 L 374.19874 101.74219 L 93.77344 379.34327 L 93.574221 771.78518 L 373.71827 1049.1753 z "
       transform="matrix(1.3333333,0,0,-1.3333333,0,1536)" />
    <path
       id="path23"
       d="m 356.363,859.953 v -3.769 c -5.172,-0.883 -9.09,-2.442 -11.746,-4.684 -3.808,-3.328 -7.187,-8.418 -10.133,-15.277 l -50.98,-117.524 h -3.988 L 224.762,837.75 c -2.801,6.113 -4.778,9.848 -5.93,11.203 -1.797,2.106 -4.004,3.754 -6.629,4.942 -2.621,1.187 -6.16,1.949 -10.613,2.289 v 3.769 h 59.711 v -3.769 c -6.754,-0.61 -11.141,-1.696 -13.153,-3.258 -2.011,-1.563 -3.015,-3.567 -3.015,-6.008 0,-3.395 1.652,-8.691 4.957,-15.887 l 37.183,-80.965 34.493,79.946 c 3.379,7.875 5.066,13.34 5.066,16.394 0,1.969 -1.043,3.856 -3.125,5.653 -2.086,1.8 -5.605,3.074 -10.562,3.82 -0.36,0.066 -0.973,0.172 -1.832,0.305 v 3.769 z"
       style="fill:#007ac2;fill-opacity:1;fill-rule:nonzero;stroke:none"
       transform="matrix(1.3333333,0,0,-1.3333333,0,1536)" />
    <path
       id="path24"
       d="m 427.285,725.625 v -3.77 h -62.621 v 3.77 h 5.172 c 6.035,0 10.418,1.66 13.148,4.988 1.727,2.172 2.59,7.403 2.59,15.684 v 89.215 c 0,6.992 -0.469,11.609 -1.402,13.851 -0.719,1.696 -2.192,3.157 -4.418,4.379 -3.164,1.629 -6.469,2.442 -9.918,2.442 h -5.172 v 3.769 h 62.621 v -3.769 h -5.281 c -5.965,0 -10.313,-1.664 -13.043,-4.989 -1.797,-2.172 -2.695,-7.402 -2.695,-15.683 v -89.215 c 0,-6.992 0.468,-11.609 1.402,-13.852 0.719,-1.695 2.227,-3.156 4.527,-4.379 3.09,-1.628 6.36,-2.441 9.809,-2.441 z"
       style="fill:#007ac2;fill-opacity:1;fill-rule:nonzero;stroke:none"
       transform="matrix(1.3333333,0,0,-1.3333333,0,1536)" />
    <path
       id="path25"
       d="m 534.098,863.109 v -47.761 h -3.989 c -1.293,9.164 -3.609,16.461 -6.953,21.894 -3.34,5.43 -8.101,9.742 -14.281,12.934 -6.18,3.191 -12.574,4.785 -19.184,4.785 -7.472,0 -13.652,-2.152 -18.539,-6.465 -4.886,-4.312 -7.328,-9.219 -7.328,-14.715 0,-4.211 1.543,-8.047 4.633,-11.511 4.457,-5.09 15.055,-11.879 31.797,-20.368 13.652,-6.925 22.976,-12.238 27.969,-15.937 4.992,-3.699 8.84,-8.063 11.531,-13.086 2.695,-5.024 4.043,-10.285 4.043,-15.785 0,-10.457 -4.293,-19.469 -12.879,-27.039 -8.586,-7.571 -19.637,-11.356 -33.145,-11.356 -4.238,0 -8.226,0.305 -11.964,0.914 -2.227,0.34 -6.844,1.578 -13.848,3.719 -7.008,2.137 -11.445,3.207 -13.313,3.207 -1.796,0 -3.214,-0.508 -4.257,-1.527 -1.039,-1.02 -1.813,-3.121 -2.317,-6.313 h -3.988 v 47.356 h 3.988 c 1.867,-9.914 4.383,-17.332 7.547,-22.254 3.16,-4.922 7.992,-9.012 14.496,-12.27 6.5,-3.261 13.633,-4.89 21.395,-4.89 8.98,0 16.078,2.242 21.285,6.722 5.211,4.481 7.816,9.778 7.816,15.887 0,3.395 -0.988,6.824 -2.965,10.285 -1.976,3.465 -5.046,6.688 -9.214,9.676 -2.805,2.039 -10.457,6.367 -22.957,12.984 -12.504,6.621 -21.395,11.899 -26.676,15.836 -5.285,3.942 -9.289,8.285 -12.02,13.039 -2.73,4.75 -4.097,9.981 -4.097,15.684 0,9.91 4.027,18.449 12.074,25.613 8.047,7.16 18.285,10.742 30.719,10.742 7.757,0 15.984,-1.796 24.679,-5.398 4.024,-1.695 6.864,-2.543 8.516,-2.543 1.867,0 3.394,0.523 4.582,1.578 1.184,1.051 2.137,3.172 2.855,6.363 z"
       style="fill:#007ac2;fill-opacity:1;fill-rule:nonzero;stroke:none"
       transform="matrix(1.3333333,0,0,-1.3333333,0,1536)" />
    <path
       id="path26"
       d="m 623.879,725.625 v -3.77 h -62.621 v 3.77 h 5.172 c 6.039,0 10.422,1.66 13.152,4.988 1.723,2.172 2.586,7.403 2.586,15.684 v 89.215 c 0,6.992 -0.469,11.609 -1.402,13.851 -0.719,1.696 -2.192,3.157 -4.418,4.379 -3.16,1.629 -6.469,2.442 -9.918,2.442 h -5.172 v 3.769 h 62.621 v -3.769 h -5.281 c -5.965,0 -10.313,-1.664 -13.039,-4.989 -1.797,-2.172 -2.696,-7.402 -2.696,-15.683 v -89.215 c 0,-6.992 0.465,-11.609 1.399,-13.852 0.718,-1.695 2.23,-3.156 4.527,-4.379 3.09,-1.628 6.359,-2.441 9.809,-2.441 z"
       style="fill:#007ac2;fill-opacity:1;fill-rule:nonzero;stroke:none"
       transform="matrix(1.3333333,0,0,-1.3333333,0,1536)" />
    <path
       id="path27"
       d="m 710.215,863.109 c 18.969,0 35.406,-6.804 49.308,-20.418 13.903,-13.613 20.856,-30.605 20.856,-50.972 0,-20.981 -7.004,-38.395 -21.016,-52.246 -14.011,-13.848 -30.968,-20.774 -50.875,-20.774 -20.117,0 -37.023,6.754 -50.711,20.266 -13.687,13.512 -20.531,30.992 -20.531,52.449 0,21.93 7.902,39.82 23.711,53.672 13.723,12.016 30.145,18.023 49.258,18.023 z m -2.051,-7.433 c -13.078,0 -23.566,-4.582 -31.473,-13.75 -9.843,-11.406 -14.765,-28.106 -14.765,-50.106 0,-22.539 5.101,-39.886 15.304,-52.043 7.833,-9.23 18.18,-13.847 31.043,-13.847 13.723,0 25.059,5.058 34.004,15.172 8.946,10.117 13.422,26.074 13.422,47.867 0,23.629 -4.926,41.246 -14.769,52.855 -7.903,9.235 -18.825,13.852 -32.766,13.852 z"
       style="fill:#007ac2;fill-opacity:1;fill-rule:nonzero;stroke:none"
       transform="matrix(1.3333333,0,0,-1.3333333,0,1536)" />
    <path
       id="path28"
       d="m 786.094,859.953 h 39.664 l 89.351,-103.574 v 79.641 c 0,8.488 -1.007,13.781 -3.019,15.886 -2.66,2.852 -6.863,4.278 -12.61,4.278 h -5.066 v 3.769 h 50.871 v -3.769 h -5.172 c -6.179,0 -10.562,-1.766 -13.148,-5.293 -1.582,-2.176 -2.371,-7.129 -2.371,-14.871 V 719.613 h -3.883 l -96.356,111.211 v -85.035 c 0,-8.488 0.969,-13.785 2.911,-15.887 2.73,-2.851 6.933,-4.277 12.609,-4.277 h 5.176 v -3.77 h -50.875 v 3.77 h 5.066 c 6.25,0 10.668,1.762 13.258,5.293 1.578,2.172 2.371,7.129 2.371,14.871 v 96.035 c -4.242,4.684 -7.457,7.774 -9.648,9.27 -2.192,1.492 -5.407,2.883 -9.645,4.176 -2.086,0.609 -5.246,0.914 -9.484,0.914 z"
       style="fill:#007ac2;fill-opacity:1;fill-rule:nonzero;stroke:none"
       transform="matrix(1.3333333,0,0,-1.3333333,0,1536)" />
    <path
       id="path29"
       style="fill:#007ac2;fill-opacity:1;fill-rule:nonzero;stroke:none"
       d="M 592.96437 709.09426 C 431.48337 709.09426 300.42628 657.68386 300.42628 594.33986 C 300.42628 530.99586 431.48337 479.58546 592.96437 479.58546 C 754.44837 479.58546 885.50832 530.99586 885.50832 594.33986 C 885.50832 657.68386 754.44837 709.09426 592.96437 709.09426 z M 377.86671 671.17531 L 571.79738 671.17531 L 571.79738 666.33547 L 565.23048 666.33547 C 547.73048 666.33547 535.7927 665.37505 529.4297 663.45705 C 524.8547 662.14805 522.56544 660.23014 522.56544 657.70314 C 522.56544 656.13314 523.36314 654.27713 524.95314 652.14113 C 526.54714 650.00413 531.91842 644.27 541.06642 634.938 L 627.28859 546.62843 L 707.24562 625.25832 C 716.79262 634.76232 722.66065 641.12948 724.84865 644.35548 C 727.03565 647.58648 728.13283 650.33216 728.13283 652.59816 C 728.13283 655.21516 726.5389 657.52727 723.3589 659.53127 C 720.1759 661.53927 715.49996 663.0663 709.33596 664.1133 C 700.78096 665.5943 689.44475 666.33547 675.32375 666.33547 L 675.32375 671.17531 L 808.08986 671.17531 L 808.08986 666.33547 C 793.37086 665.28847 780.24254 661.84353 768.70754 655.99953 C 760.35254 651.64053 747.92208 641.39132 731.41408 625.25832 L 592.08253 489.71925 L 582.23732 489.71925 L 443.50343 630.75002 C 426.79643 647.75802 415.60893 657.74547 409.94093 660.71047 C 404.27293 663.67547 393.58171 665.55047 377.86671 666.33547 L 377.86671 671.17531 z "
       transform="matrix(1.3333333,0,0,-1.3333333,0,1536)" />
    <path
       id="path31"
       d="m 269.707,488.996 v -58.098 h -4.66 c -1.508,11.149 -4.215,20.028 -8.117,26.633 -3.903,6.606 -9.465,11.852 -16.684,15.735 -7.215,3.879 -14.687,5.82 -22.406,5.82 -8.731,0 -15.945,-2.621 -21.652,-7.867 -5.708,-5.242 -8.563,-11.211 -8.563,-17.899 0,-5.121 1.805,-9.789 5.414,-14 5.203,-6.195 17.582,-14.453 37.137,-24.777 15.945,-8.422 26.836,-14.887 32.668,-19.387 5.836,-4.5 10.324,-9.808 13.472,-15.918 3.145,-6.113 4.719,-12.511 4.719,-19.203 0,-12.719 -5.015,-23.68 -15.043,-32.89 -10.027,-9.207 -22.933,-13.813 -38.711,-13.813 -4.953,0 -9.609,0.371 -13.972,1.113 -2.602,0.414 -7.996,1.922 -16.18,4.524 -8.184,2.601 -13.363,3.902 -15.547,3.902 -2.098,0 -3.754,-0.621 -4.973,-1.859 -1.214,-1.239 -2.117,-3.797 -2.707,-7.68 h -4.656 v 57.606 h 4.656 c 2.184,-12.059 5.121,-21.083 8.813,-27.067 3.695,-5.988 9.336,-10.965 16.933,-14.93 7.594,-3.964 15.926,-5.945 24.989,-5.945 10.492,0 18.777,2.723 24.863,8.176 6.086,5.449 9.129,11.891 9.129,19.324 0,4.129 -1.156,8.301 -3.465,12.512 -2.305,4.215 -5.894,8.137 -10.762,11.769 -3.273,2.477 -12.211,7.743 -26.816,15.797 -14.602,8.051 -24.988,14.473 -31.156,19.262 -6.168,4.789 -10.848,10.078 -14.035,15.859 -3.192,5.782 -4.786,12.141 -4.786,19.078 0,12.055 4.7,22.442 14.098,31.157 9.402,8.711 21.359,13.066 35.879,13.066 9.066,0 18.676,-2.187 28.832,-6.562 4.699,-2.067 8.012,-3.098 9.945,-3.098 2.18,0 3.965,0.641 5.348,1.918 1.387,1.281 2.496,3.863 3.336,7.742 z"
       style="fill:#007ac2;fill-opacity:1;fill-rule:nonzero;stroke:none"
       transform="matrix(1.3333333,0,0,-1.3333333,0,1536)" />
    <path
       id="path32"
       d="m 322.453,387.91 c -0.082,-16.847 4.07,-30.062 12.465,-39.644 8.391,-9.578 18.254,-14.368 29.582,-14.368 7.555,0 14.121,2.043 19.703,6.129 5.582,4.09 10.262,11.09 14.039,21 l 3.903,-2.476 c -1.766,-11.317 -6.883,-21.617 -15.36,-30.91 -8.476,-9.293 -19.094,-13.938 -31.851,-13.938 -13.848,0 -25.704,5.309 -35.563,15.918 -9.863,10.613 -14.793,24.883 -14.793,42.805 0,19.406 5.055,34.539 15.168,45.402 10.113,10.86 22.809,16.289 38.082,16.289 12.926,0 23.543,-4.191 31.852,-12.574 8.308,-8.383 12.465,-19.594 12.465,-33.633 z m 0,7.184 h 53.379 c -0.418,7.269 -1.301,12.39 -2.644,15.363 -2.098,4.625 -5.223,8.258 -9.379,10.902 -4.153,2.641 -8.496,3.961 -13.028,3.961 -6.968,0 -13.199,-2.66 -18.695,-7.988 -5.5,-5.328 -8.707,-12.738 -9.633,-22.238 z"
       style="fill:#007ac2;fill-opacity:1;fill-rule:nonzero;stroke:none"
       transform="matrix(1.3333333,0,0,-1.3333333,0,1536)" />
    <path
       id="path33"
       d="m 515.32,360.285 c -3.105,-14.949 -9.191,-26.449 -18.254,-34.504 -9.066,-8.051 -19.093,-12.078 -30.089,-12.078 -13.094,0 -24.508,5.41 -34.243,16.231 -9.734,10.816 -14.601,25.437 -14.601,43.851 0,17.84 5.39,32.336 16.176,43.485 10.785,11.148 23.73,16.722 38.836,16.722 11.332,0 20.648,-2.949 27.949,-8.855 7.301,-5.907 10.953,-12.039 10.953,-18.399 0,-3.136 -1.031,-5.675 -3.086,-7.617 -2.055,-1.941 -4.93,-2.91 -8.625,-2.91 -4.949,0 -8.684,1.566 -11.203,4.707 -1.426,1.734 -2.371,5.035 -2.832,9.91 -0.461,4.871 -2.16,8.59 -5.098,11.149 -2.937,2.476 -7.008,3.718 -12.211,3.718 -8.394,0 -15.148,-3.058 -20.269,-9.168 -6.797,-8.093 -10.196,-18.789 -10.196,-32.086 0,-13.546 3.375,-25.5 10.133,-35.863 6.754,-10.367 15.883,-15.547 27.379,-15.547 8.227,0 15.613,2.766 22.16,8.297 4.614,3.801 9.106,10.695 13.469,20.692 z"
       style="fill:#007ac2;fill-opacity:1;fill-rule:nonzero;stroke:none"
       transform="matrix(1.3333333,0,0,-1.3333333,0,1536)" />
    <path
       id="path34"
       d="m 632.773,430.648 v -68.753 c 0,-13.133 0.317,-21.165 0.946,-24.094 0.629,-2.934 1.636,-4.977 3.023,-6.133 1.383,-1.156 3,-1.734 4.844,-1.734 2.602,0 5.539,0.699 8.812,2.105 l 1.762,-4.336 -34.492,-14 h -5.664 v 24.035 c -9.906,-10.574 -17.457,-17.222 -22.66,-19.945 -5.203,-2.727 -10.703,-4.09 -16.492,-4.09 -6.465,0 -12.067,1.84 -16.809,5.512 -4.742,3.676 -8.035,8.406 -9.883,14.187 -1.844,5.782 -2.769,13.957 -2.769,24.528 v 50.668 c 0,5.367 -0.586,9.086 -1.762,11.148 -1.176,2.067 -2.914,3.656 -5.223,4.77 -2.308,1.117 -6.484,1.632 -12.527,1.55 v 4.582 h 40.41 v -75.937 c 0,-10.574 1.867,-17.512 5.602,-20.813 3.738,-3.304 8.246,-4.957 13.535,-4.957 3.609,0 7.699,1.114 12.273,3.344 4.574,2.231 10.008,6.485 16.305,12.762 v 64.293 c 0,6.441 -1.195,10.801 -3.59,13.07 -2.391,2.274 -7.363,3.488 -14.918,3.656 v 4.582 z"
       style="fill:#007ac2;fill-opacity:1;fill-rule:nonzero;stroke:none"
       transform="matrix(1.3333333,0,0,-1.3333333,0,1536)" />
    <path
       id="path35"
       d="m 694.336,433.992 v -25.519 c 9.652,17.015 19.555,25.519 29.711,25.519 4.613,0 8.433,-1.383 11.453,-4.148 3.023,-2.766 4.535,-5.969 4.535,-9.602 0,-3.219 -1.094,-5.945 -3.273,-8.176 -2.184,-2.23 -4.785,-3.343 -7.805,-3.343 -2.937,0 -6.234,1.422 -9.883,4.273 -3.652,2.848 -6.359,4.274 -8.121,4.274 -1.512,0 -3.148,-0.825 -4.91,-2.477 -3.777,-3.387 -7.68,-8.961 -11.707,-16.727 v -54.382 c 0,-6.278 0.797,-11.028 2.391,-14.246 1.089,-2.231 3.023,-4.09 5.793,-5.575 2.769,-1.488 6.753,-2.23 11.957,-2.23 v -4.461 h -59.043 v 4.461 c 5.875,0 10.242,0.906 13.093,2.726 2.098,1.321 3.567,3.426 4.407,6.317 0.421,1.402 0.629,5.41 0.629,12.015 v 43.981 c 0,13.211 -0.274,21.078 -0.817,23.598 -0.547,2.519 -1.555,4.355 -3.023,5.511 -1.469,1.157 -3.293,1.735 -5.477,1.735 -2.601,0 -5.539,-0.618 -8.812,-1.856 l -1.258,4.457 34.871,13.875 z"
       style="fill:#007ac2;fill-opacity:1;fill-rule:nonzero;stroke:none"
       transform="matrix(1.3333333,0,0,-1.3333333,0,1536)" />
    <path
       id="path36"
       d="m 776.039,493.332 c 3.524,0 6.524,-1.219 9,-3.652 2.477,-2.438 3.715,-5.391 3.715,-8.86 0,-3.468 -1.238,-6.441 -3.715,-8.918 -2.476,-2.476 -5.476,-3.718 -9,-3.718 -3.527,0 -6.547,1.242 -9.066,3.718 -2.516,2.477 -3.774,5.45 -3.774,8.918 0,3.469 1.235,6.422 3.711,8.86 2.477,2.433 5.52,3.652 9.129,3.652 z m 10.449,-59.34 v -91.176 c 0,-7.101 0.524,-11.832 1.575,-14.183 1.046,-2.356 2.601,-4.11 4.656,-5.266 2.054,-1.156 5.812,-1.734 11.265,-1.734 v -4.461 h -56.019 v 4.461 c 5.621,0 9.398,0.535 11.332,1.609 1.93,1.074 3.461,2.852 4.594,5.328 1.132,2.477 1.699,7.227 1.699,14.246 v 43.731 c 0,12.305 -0.379,20.273 -1.133,23.91 -0.59,2.641 -1.512,4.481 -2.769,5.512 -1.258,1.031 -2.981,1.547 -5.165,1.547 -2.347,0 -5.203,-0.618 -8.558,-1.856 l -1.762,4.457 34.746,13.875 z"
       style="fill:#007ac2;fill-opacity:1;fill-rule:nonzero;stroke:none"
       transform="matrix(1.3333333,0,0,-1.3333333,0,1536)" />
    <path
       id="path37"
       d="m 851.699,467.938 v -37.29 h 26.942 v -8.671 h -26.942 v -73.586 c 0,-7.352 1.071,-12.305 3.211,-14.868 2.141,-2.558 4.887,-3.839 8.246,-3.839 2.77,0 5.453,0.847 8.055,2.539 2.602,1.695 4.617,4.191 6.043,7.496 h 4.91 c -2.937,-8.094 -7.09,-14.184 -12.465,-18.274 -5.371,-4.086 -10.91,-6.132 -16.617,-6.132 -3.859,0 -7.637,1.054 -11.328,3.16 -3.695,2.105 -6.422,5.121 -8.184,9.043 -1.761,3.925 -2.644,9.972 -2.644,18.148 v 76.313 h -18.254 v 4.089 c 4.617,1.817 9.336,4.891 14.164,9.227 4.824,4.336 9.125,9.477 12.902,15.426 1.93,3.136 4.617,8.879 8.059,17.219 z"
       style="fill:#007ac2;fill-opacity:1;fill-rule:nonzero;stroke:none"
       transform="matrix(1.3333333,0,0,-1.3333333,0,1536)" />
    <path
       id="path38"
       d="m 883.172,430.648 h 53.754 v -4.582 h -2.645 c -3.773,0 -6.609,-0.804 -8.496,-2.418 -1.887,-1.609 -2.832,-3.613 -2.832,-6.007 0,-3.219 1.383,-7.68 4.152,-13.379 l 28.075,-57.235 25.808,62.684 c 1.426,3.387 2.141,6.734 2.141,10.035 0,1.488 -0.293,2.602 -0.883,3.348 -0.672,0.906 -1.719,1.629 -3.144,2.168 -1.43,0.535 -3.946,0.804 -7.555,0.804 v 4.582 h 37.516 v -4.582 c -3.106,-0.332 -5.497,-0.992 -7.176,-1.984 -1.68,-0.988 -3.528,-2.848 -5.539,-5.574 -0.758,-1.156 -2.184,-4.336 -4.282,-9.539 L 945.109,295.742 c -4.531,-10.984 -10.468,-19.285 -17.812,-24.902 -7.344,-5.617 -14.414,-8.422 -21.215,-8.422 -4.949,0 -9.019,1.402 -12.211,4.211 -3.187,2.809 -4.781,6.027 -4.781,9.664 0,3.469 1.152,6.254 3.461,8.359 2.308,2.106 5.476,3.161 9.504,3.161 2.769,0 6.547,-0.911 11.332,-2.727 3.355,-1.238 5.453,-1.856 6.293,-1.856 2.519,0 5.265,1.278 8.246,3.84 2.98,2.559 5.98,7.516 9,14.864 l 8.183,19.699 -41.418,85.601 c -1.257,2.563 -3.273,5.743 -6.043,9.539 -2.097,2.891 -3.816,4.832 -5.16,5.825 -1.929,1.32 -5.035,2.476 -9.316,3.468 z"
       style="fill:#007ac2;fill-opacity:1;fill-rule:nonzero;stroke:none"
       transform="matrix(1.3333333,0,0,-1.3333333,0,1536)" />
  </g>
</svg>
