<?xml version="1.0" encoding="UTF-8" standalone="no"?>
<!-- Created with Inkscape (http://www.inkscape.org/) -->

<svg
   version="1.1"
   id="svg1"
   width="1536"
   height="1536"
   viewBox="0 0 1536 1536"
   sodipodi:docname="VisSec_limited.svg"
   inkscape:version="1.4.2 (f4327f4, 2025-05-13)"
   xmlns:inkscape="http://www.inkscape.org/namespaces/inkscape"
   xmlns:sodipodi="http://sodipodi.sourceforge.net/DTD/sodipodi-0.dtd"
   xmlns="http://www.w3.org/2000/svg"
   xmlns:svg="http://www.w3.org/2000/svg">
  <defs
     id="defs1" />
  <sodipodi:namedview
     id="namedview1"
     pagecolor="#ffffff"
     bordercolor="#000000"
     borderopacity="0.25"
     inkscape:showpageshadow="2"
     inkscape:pageopacity="0.0"
     inkscape:pagecheckerboard="0"
     inkscape:deskcolor="#d1d1d1"
     inkscape:zoom="0.55664062"
     inkscape:cx="768"
     inkscape:cy="768"
     inkscape:window-width="1920"
     inkscape:window-height="1057"
     inkscape:window-x="-8"
     inkscape:window-y="-8"
     inkscape:window-maximized="1"
     inkscape:current-layer="g1">
    <inkscape:page
       x="0"
       y="0"
       inkscape:label="1"
       id="page1"
       width="1536"
       height="1536"
       margin="0"
       bleed="0" />
  </sodipodi:namedview>
  <g
     id="g1"
     inkscape:groupmode="layer"
     inkscape:label="1">
    <path
       id="path1"
       d="M 0,1147.535 H 1144.301 V 6.465 L 0,6.465 Z"
       style="fill:#007ac2;fill-opacity:0;fill-rule:nonzero;stroke:none"
       transform="matrix(1.3333333,0,0,-1.3333333,0,1536)" />
    <path
       id="path2"
       d="M 3.234,1144.301 H 1144.301 V 9.699 H 3.234 Z"
       style="fill:#007ac2;fill-opacity:0;fill-rule:nonzero;stroke:none"
       transform="matrix(1.3333333,0,0,-1.3333333,0,1536)" />
    <path
       id="path3"
       d="M 0,1147.535 H 1141.07 V 3.234 L 0,3.234 Z"
       style="fill:#007ac2;fill-opacity:0;fill-rule:nonzero;stroke:none"
       transform="matrix(1.3333333,0,0,-1.3333333,0,1536)" />
    <path
       id="path4"
       d="M 6.465,1144.301 H 1144.301 V 6.465 H 6.465 Z"
       style="fill:#007ac2;fill-opacity:0;fill-rule:nonzero;stroke:none"
       transform="matrix(1.3333333,0,0,-1.3333333,0,1536)" />
    <path
       id="path6"
       d="m 804.383,19.195 -460.641,0.176 -325.883,326.848 -0.23,462.054 325.555,326.598 460.636,-0.18 325.887,-326.847 0.231,-462.055 z"
       style="fill:#ffffff;fill-opacity:1;fill-rule:nonzero;stroke:none"
       transform="matrix(1.3333333,0,0,-1.3333333,0,1536)" />
    <path
       id="path7"
       d="m -229.508,1325.32 -50.379,-24.656 -53.058,18.191 -24.657,50.379 18.192,53.059 50.379,24.656 53.058,-18.187 24.657,-50.383 z"
       style="fill:#ffffff;fill-opacity:1;fill-rule:nonzero;stroke:none"
       transform="matrix(1.3333333,0,0,-1.3333333,0,1536)" />
    <path
       id="path8"
       d="m 802.75,17.543 -460.637,0.18 -325.886,326.847 -0.231,462.055 325.555,326.598 460.637,-0.18 325.886,-326.848 0.231,-462.054 z"
       style="fill:#ffffff;fill-opacity:1;fill-rule:nonzero;stroke:none"
       transform="matrix(1.3333333,0,0,-1.3333333,0,1536)" />
    <path
       id="path9"
       d="M 194.195,200.305 35.883,356.758 V 575.219 793.684 L 192.25,950.512 348.617,1107.34 H 572.086 795.559 L 952.313,952.43 1109.066,797.52 1108.914,577.125 1108.762,356.734 951.848,200.293 794.934,43.852 H 573.723 352.512 Z"
       style="fill:#007ac2;fill-opacity:1;fill-rule:nonzero;stroke:none"
       transform="matrix(1.3333333,0,0,-1.3333333,0,1536)" />
    <path
       id="path10"
       d="m 776.73,75.73 -415.121,0.157 -293.683,292.758 -0.211,413.859 293.39,292.531 415.122,-0.156 293.683,-292.758 0.211,-413.859 z"
       style="fill:#ffffff;fill-opacity:1;fill-rule:nonzero;stroke:none"
       transform="matrix(1.3333333,0,0,-1.3333333,0,1536)" />
    <path
       id="path11"
       d="m 770.582,101.59 -396.383,0.152 -280.426,277.602 -0.199,392.441 280.145,277.391 396.383,-0.149 280.425,-277.605 0.2,-392.442 z"
       style="fill:#007ac2;fill-opacity:1;fill-rule:nonzero;stroke:none"
       transform="matrix(1.3333333,0,0,-1.3333333,0,1536)" />
    <g
       id="g51"
       transform="matrix(1.5941407,0,0,1.7044818,-496.68851,-495.47828)">
      <g
         id="g50">
        <path
           id="path29"
           d="m 885.508,594.34 c 0,-63.344 -131.059,-114.754 -292.543,-114.754 -161.481,0 -292.539,51.41 -292.539,114.754 0,63.344 131.058,114.754 292.539,114.754 161.484,0 292.543,-51.41 292.543,-114.754 z"
           style="fill:#ffffff;fill-opacity:1;fill-rule:nonzero;stroke:none"
           transform="matrix(1.3333333,0,0,-1.3333333,0,1536)" />
      </g>
      <path
         id="path30"
         d="m 808.09,671.176 v -4.84 C 793.371,665.289 780.242,661.844 768.707,656 760.352,651.641 747.922,641.391 731.414,625.258 L 592.082,489.719 h -9.844 L 443.504,630.75 c -16.707,17.008 -27.895,26.996 -33.563,29.961 -5.668,2.965 -16.359,4.84 -32.074,5.625 v 4.84 h 193.93 v -4.84 h -6.567 c -17.5,0 -29.437,-0.961 -35.8,-2.879 -4.575,-1.309 -6.864,-3.227 -6.864,-5.754 0,-1.57 0.797,-3.426 2.387,-5.562 1.594,-2.137 6.965,-7.871 16.113,-17.203 l 86.223,-88.309 79.957,78.629 c 9.547,9.504 15.414,15.871 17.602,19.097 2.187,3.231 3.285,5.977 3.285,8.243 0,2.617 -1.594,4.929 -4.774,6.933 -3.183,2.008 -7.859,3.535 -14.023,4.582 -8.555,1.481 -19.891,2.223 -34.012,2.223 v 4.84 z"
         style="fill:#007ac2;fill-opacity:1;fill-rule:nonzero;stroke:none"
         transform="matrix(1.3333333,0,0,-1.3333333,0,1536)" />
    </g>
  </g>
</svg>
