<?xml version="1.0" encoding="UTF-8" standalone="no"?>
<!-- Created with Inkscape (http://www.inkscape.org/) -->

<svg
   version="1.1"
   id="svg1"
   width="1536"
   height="1536"
   viewBox="0 0 1536 1536"
   sodipodi:docname="VisSec_limited.svg"
   inkscape:version="1.4.2 (f4327f4, 2025-05-13)"
   xmlns:inkscape="http://www.inkscape.org/namespaces/inkscape"
   xmlns:sodipodi="http://sodipodi.sourceforge.net/DTD/sodipodi-0.dtd"
   xmlns="http://www.w3.org/2000/svg"
   xmlns:svg="http://www.w3.org/2000/svg">
  <defs
     id="defs1" />
  <sodipodi:namedview
     id="namedview1"
     pagecolor="#ffffff"
     bordercolor="#000000"
     borderopacity="0.25"
     inkscape:showpageshadow="2"
     inkscape:pageopacity="0.0"
     inkscape:pagecheckerboard="0"
     inkscape:deskcolor="#d1d1d1"
     inkscape:zoom="0.55664062"
     inkscape:cx="768"
     inkscape:cy="768"
     inkscape:window-width="1920"
     inkscape:window-height="1057"
     inkscape:window-x="-8"
     inkscape:window-y="-8"
     inkscape:window-maximized="1"
     inkscape:current-layer="g1">
    <inkscape:page
       x="0"
       y="0"
       inkscape:label="1"
       id="page1"
       width="1536"
       height="1536"
       margin="0"
       bleed="0" />
  </sodipodi:namedview>
  <g
     id="g1"
     inkscape:groupmode="layer"
     inkscape:label="1">
    <path
       id="path1"
       d="M 0,1147.535 H 1144.301 V 6.465 L 0,6.465 Z"
       style="fill:#007ac2;fill-opacity:0;fill-rule:nonzero;stroke:none"
       transform="matrix(1.3333333,0,0,-1.3333333,0,1536)" />
    <path
       id="path2"
       d="M 3.234,1144.301 H 1144.301 V 9.699 H 3.234 Z"
       style="fill:#007ac2;fill-opacity:0;fill-rule:nonzero;stroke:none"
       transform="matrix(1.3333333,0,0,-1.3333333,0,1536)" />
    <path
       id="path3"
       d="M 0,1147.535 H 1141.07 V 3.234 L 0,3.234 Z"
       style="fill:#007ac2;fill-opacity:0;fill-rule:nonzero;stroke:none"
       transform="matrix(1.3333333,0,0,-1.3333333,0,1536)" />
    <path
       id="path4"
       d="M 6.465,1144.301 H 1144.301 V 6.465 H 6.465 Z"
       style="fill:#007ac2;fill-opacity:0;fill-rule:nonzero;stroke:none"
       transform="matrix(1.3333333,0,0,-1.3333333,0,1536)" />
    <path
       id="path6"
       d="m 804.383,19.195 -460.641,0.176 -325.883,326.848 -0.23,462.054 325.555,326.598 460.636,-0.18 325.887,-326.847 0.231,-462.055 z"
       style="fill:#ffffff;fill-opacity:1;fill-rule:nonzero;stroke:none"
       transform="matrix(1.3333333,0,0,-1.3333333,0,1536)" />
    <path
       id="path7"
       d="m -229.508,1325.32 -50.379,-24.656 -53.058,18.191 -24.657,50.379 18.192,53.059 50.379,24.656 53.058,-18.187 24.657,-50.383 z"
       style="fill:#ffffff;fill-opacity:1;fill-rule:nonzero;stroke:none"
       transform="matrix(1.3333333,0,0,-1.3333333,0,1536)" />
    <path
       id="path8"
       d="m 802.75,17.543 -460.637,0.18 -325.886,326.847 -0.231,462.055 325.555,326.598 460.637,-0.18 325.886,-326.848 0.231,-462.054 z"
       style="fill:#ffffff;fill-opacity:1;fill-rule:nonzero;stroke:none"
       transform="matrix(1.3333333,0,0,-1.3333333,0,1536)" />
    <path
       id="path9"
       d="M 194.195,200.305 35.883,356.758 V 575.219 793.684 L 192.25,950.512 348.617,1107.34 H 572.086 795.559 L 952.313,952.43 1109.066,797.52 1108.914,577.125 1108.762,356.734 951.848,200.293 794.934,43.852 H 573.723 352.512 Z"
       style="fill:#007ac2;fill-opacity:1;fill-rule:nonzero;stroke:none"
       transform="matrix(1.3333333,0,0,-1.3333333,0,1536)" />
    <path
       id="path10"
       d="m 776.73,75.73 -415.121,0.157 -293.683,292.758 -0.211,413.859 293.39,292.531 415.122,-0.156 293.683,-292.758 0.211,-413.859 z"
       style="fill:#ffffff;fill-opacity:1;fill-rule:nonzero;stroke:none"
       transform="matrix(1.3333333,0,0,-1.3333333,0,1536)" />
    <path
       id="path11"
       d="m 770.582,101.59 -396.383,0.152 -280.426,277.602 -0.199,392.441 280.145,277.391 396.383,-0.149 280.425,-277.605 0.2,-392.442 z"
       style="fill:#007ac2;fill-opacity:1;fill-rule:nonzero;stroke:none"
       transform="matrix(1.3333333,0,0,-1.3333333,0,1536)" />
    <path
       id="path12"
       d="m 350.516,950.102 v -19.704 c 0,-3.843 0.199,-6.261 0.593,-7.257 0.395,-0.996 1.102,-1.789 2.114,-2.383 1.011,-0.598 2.867,-0.895 5.562,-0.895 v -1.937 h -30.312 v 1.937 c 2.757,0 4.625,0.309 5.609,0.918 0.984,0.614 1.672,1.407 2.066,2.387 0.399,0.977 0.594,3.387 0.594,7.23 v 46.114 c 0,3.843 -0.195,6.261 -0.594,7.258 -0.394,0.996 -1.089,1.793 -2.089,2.386 -0.996,0.594 -2.86,0.891 -5.586,0.891 v 1.937 h 26.004 c 8.562,0 14.707,-1.816 18.433,-5.449 3.727,-3.633 5.586,-8.176 5.586,-13.625 0,-4.613 -1.203,-8.558 -3.605,-11.844 -2.407,-3.285 -5.719,-5.519 -9.946,-6.707 -2.843,-0.839 -7.656,-1.257 -14.429,-1.257 z m 0,34.796 v -30.71 c 0.968,-0.067 1.699,-0.102 2.199,-0.102 3.578,0 6.336,1.266 8.273,3.797 1.934,2.535 2.903,6.457 2.903,11.765 0,5.274 -0.969,9.137 -2.903,11.582 -1.937,2.446 -4.828,3.668 -8.668,3.668 z"
       style="fill:#ffffff;fill-opacity:1;fill-rule:nonzero;stroke:none"
       transform="matrix(1.3333333,0,0,-1.3333333,0,1536)" />
    <path
       id="path13"
       d="m 401.375,966.922 v -11.109 c 2.73,5.066 5.121,8.429 7.172,10.089 2.055,1.661 4.035,2.489 5.941,2.489 1.641,0 2.953,-0.602 3.938,-1.809 0.98,-1.203 1.472,-2.906 1.472,-5.109 0,-2.34 -0.476,-4.157 -1.429,-5.45 -0.953,-1.293 -2.106,-1.937 -3.453,-1.937 -1.555,0 -2.903,0.594 -4.047,1.781 -1.145,1.188 -1.821,1.852 -2.024,1.992 -0.293,0.207 -0.632,0.313 -1.011,0.313 -0.852,0 -1.661,-0.383 -2.422,-1.152 -1.203,-1.188 -2.114,-2.883 -2.727,-5.082 -0.941,-3.391 -1.41,-7.129 -1.41,-11.215 v -11.27 l 0.047,-2.933 c 0,-1.993 0.101,-3.266 0.305,-3.825 0.355,-0.945 0.875,-1.632 1.562,-2.07 0.691,-0.437 1.856,-0.707 3.5,-0.812 v -1.887 H 384.57 v 1.887 c 1.789,0.175 2.996,0.761 3.629,1.753 0.629,0.997 0.946,3.625 0.946,7.887 v 27.094 c 0,2.797 -0.118,4.578 -0.352,5.348 -0.293,0.976 -0.719,1.691 -1.277,2.148 -0.555,0.453 -1.539,0.766 -2.946,0.941 v 1.938 z"
       style="fill:#ffffff;fill-opacity:1;fill-rule:nonzero;stroke:none"
       transform="matrix(1.3333333,0,0,-1.3333333,0,1536)" />
    <path
       id="path14"
       d="m 443.656,968.391 c 3.578,0 6.91,-1.102 9.989,-3.301 3.082,-2.203 5.418,-5.328 7.019,-9.379 1.598,-4.055 2.399,-8.492 2.399,-13.313 0,-6.953 -1.485,-12.769 -4.446,-17.449 -3.578,-5.66 -8.519,-8.492 -14.828,-8.492 -6.187,0 -10.953,2.586 -14.297,7.758 -3.344,5.172 -5.015,11.16 -5.015,17.973 0,7.023 1.707,13.144 5.125,18.367 3.418,5.222 8.101,7.836 14.054,7.836 z m 0.176,-3.719 c -1.496,0 -2.777,-0.676 -3.848,-2.02 -1.07,-1.343 -1.773,-4 -2.113,-7.964 -0.336,-3.965 -0.504,-9.477 -0.504,-16.536 0,-3.738 0.203,-7.23 0.613,-10.48 0.325,-2.481 1.012,-4.367 2.071,-5.656 1.054,-1.293 2.258,-1.942 3.605,-1.942 1.321,0 2.422,0.438 3.301,1.313 1.145,1.187 1.906,2.843 2.289,4.976 0.586,3.321 0.879,10.028 0.879,20.121 0,5.942 -0.277,10.02 -0.836,12.239 -0.559,2.218 -1.379,3.832 -2.465,4.847 -0.761,0.735 -1.758,1.102 -2.992,1.102 z"
       style="fill:#ffffff;fill-opacity:1;fill-rule:nonzero;stroke:none"
       transform="matrix(1.3333333,0,0,-1.3333333,0,1536)" />
    <path
       id="path15"
       d="m 485.633,984.844 v -17.922 h 9.765 v -5.188 h -9.765 V 931.5 c 0,-2.832 0.109,-4.656 0.328,-5.477 0.219,-0.82 0.609,-1.484 1.168,-1.992 0.555,-0.508 1.07,-0.761 1.539,-0.761 1.906,0 3.711,1.73 5.41,5.191 l 1.32,-1.156 c -2.375,-6.707 -6.234,-10.059 -11.57,-10.059 -2.609,0 -4.82,0.863 -6.621,2.594 -1.805,1.726 -2.957,3.66 -3.453,5.789 -0.297,1.187 -0.441,4.402 -0.441,9.644 v 26.461 h -5.368 v 1.836 c 3.696,3.11 6.84,6.375 9.438,9.797 2.594,3.426 4.859,7.25 6.797,11.477 z"
       style="fill:#ffffff;fill-opacity:1;fill-rule:nonzero;stroke:none"
       transform="matrix(1.3333333,0,0,-1.3333333,0,1536)" />
    <path
       id="path16"
       d="m 534.25,944.18 h -22.57 c 0.261,-6.496 1.715,-11.633 4.355,-15.407 2.024,-2.898 4.457,-4.347 7.301,-4.347 1.762,0 3.359,0.582 4.797,1.754 1.437,1.172 2.976,3.273 4.621,6.316 l 1.496,-1.156 c -2.23,-5.414 -4.695,-9.246 -7.395,-11.5 -2.695,-2.254 -5.82,-3.383 -9.371,-3.383 -6.101,0 -10.718,2.797 -13.859,8.387 -2.52,4.508 -3.781,10.097 -3.781,16.769 0,8.176 1.855,14.68 5.562,19.52 3.711,4.84 8.063,7.258 13.047,7.258 4.164,0 7.781,-2.036 10.844,-6.106 3.066,-4.07 4.719,-10.105 4.953,-18.105 z m -10.824,3.511 c 0,5.625 -0.258,9.485 -0.77,11.582 -0.515,2.094 -1.312,3.684 -2.398,4.77 -0.617,0.629 -1.438,0.941 -2.465,0.941 -1.523,0 -2.77,-0.89 -3.738,-2.671 -1.731,-3.11 -2.598,-7.372 -2.598,-12.786 v -1.836 z"
       style="fill:#ffffff;fill-opacity:1;fill-rule:nonzero;stroke:none"
       transform="matrix(1.3333333,0,0,-1.3333333,0,1536)" />
    <path
       id="path17"
       d="m 572.922,930.555 1.363,-1.258 c -1.933,-4.332 -4.347,-7.555 -7.238,-9.668 -2.887,-2.113 -5.961,-3.172 -9.215,-3.172 -5.484,0 -9.871,2.465 -13.156,7.391 -3.285,4.925 -4.926,10.847 -4.926,17.765 0,6.672 1.492,12.543 4.484,17.606 3.61,6.113 8.582,9.172 14.918,9.172 4.25,0 7.633,-1.274 10.141,-3.825 2.508,-2.55 3.762,-5.398 3.762,-8.543 0,-1.992 -0.508,-3.582 -1.52,-4.769 -1.012,-1.188 -2.34,-1.781 -3.98,-1.781 -1.731,0 -3.16,0.679 -4.289,2.043 -1.129,1.363 -1.828,3.793 -2.09,7.285 -0.176,2.199 -0.602,3.738 -1.278,4.613 -0.675,0.871 -1.464,1.309 -2.375,1.309 -1.406,0 -2.609,-0.891 -3.609,-2.672 -1.523,-2.692 -2.285,-6.813 -2.285,-12.367 0,-4.614 0.613,-9.024 1.848,-13.235 1.23,-4.207 2.918,-7.344 5.058,-9.406 1.613,-1.5 3.52,-2.25 5.719,-2.25 1.437,0 2.801,0.398 4.094,1.203 1.289,0.805 2.816,2.324 4.574,4.559 z"
       style="fill:#ffffff;fill-opacity:1;fill-rule:nonzero;stroke:none"
       transform="matrix(1.3333333,0,0,-1.3333333,0,1536)" />
    <path
       id="path18"
       d="m 595.625,984.844 v -17.922 h 9.766 v -5.188 h -9.766 V 931.5 c 0,-2.832 0.109,-4.656 0.328,-5.477 0.223,-0.82 0.61,-1.484 1.168,-1.992 0.559,-0.508 1.07,-0.761 1.539,-0.761 1.906,0 3.711,1.73 5.414,5.191 l 1.317,-1.156 c -2.375,-6.707 -6.231,-10.059 -11.571,-10.059 -2.609,0 -4.816,0.863 -6.621,2.594 -1.804,1.726 -2.953,3.66 -3.453,5.789 -0.293,1.187 -0.441,4.402 -0.441,9.644 v 26.461 h -5.367 v 1.836 c 3.695,3.11 6.843,6.375 9.437,9.797 2.598,3.426 4.863,7.25 6.797,11.477 z"
       style="fill:#ffffff;fill-opacity:1;fill-rule:nonzero;stroke:none"
       transform="matrix(1.3333333,0,0,-1.3333333,0,1536)" />
    <path
       id="path19"
       d="m 644.242,944.18 h -22.57 c 0.262,-6.496 1.715,-11.633 4.355,-15.407 2.024,-2.898 4.457,-4.347 7.305,-4.347 1.758,0 3.356,0.582 4.793,1.754 1.438,1.172 2.98,3.273 4.621,6.316 l 1.496,-1.156 c -2.23,-5.414 -4.691,-9.246 -7.39,-11.5 -2.7,-2.254 -5.825,-3.383 -9.372,-3.383 -6.101,0 -10.722,2.797 -13.859,8.387 -2.523,4.508 -3.785,10.097 -3.785,16.769 0,8.176 1.855,14.68 5.566,19.52 3.711,4.84 8.059,7.258 13.043,7.258 4.168,0 7.782,-2.036 10.848,-6.106 3.066,-4.07 4.715,-10.105 4.949,-18.105 z m -10.824,3.511 c 0,5.625 -0.254,9.485 -0.77,11.582 -0.511,2.094 -1.312,3.684 -2.398,4.77 -0.613,0.629 -1.437,0.941 -2.461,0.941 -1.527,0 -2.773,-0.89 -3.742,-2.671 -1.731,-3.11 -2.594,-7.372 -2.594,-12.786 v -1.836 z"
       style="fill:#ffffff;fill-opacity:1;fill-rule:nonzero;stroke:none"
       transform="matrix(1.3333333,0,0,-1.3333333,0,1536)" />
    <path
       id="path20"
       d="m 689.34,988.984 v -56.386 c 0,-3.805 0.086,-6.059 0.265,-6.758 0.235,-1.152 0.68,-2.008 1.34,-2.57 0.66,-0.559 1.813,-0.907 3.453,-1.047 v -1.731 l -17.378,-4.035 v 7.758 c -2.082,-3.004 -3.938,-5.047 -5.567,-6.133 -1.625,-1.082 -3.469,-1.625 -5.519,-1.625 -5.25,0 -9.403,2.797 -12.454,8.387 -2.46,4.543 -3.695,10.113 -3.695,16.715 0,5.277 0.762,10 2.289,14.175 1.524,4.176 3.614,7.329 6.27,9.461 2.652,2.129 5.508,3.196 8.558,3.196 1.965,0 3.707,-0.453 5.235,-1.364 1.523,-0.906 3.152,-2.496 4.883,-4.769 v 14.781 c 0,3.734 -0.133,5.988 -0.395,6.758 -0.352,1.012 -0.879,1.766 -1.586,2.254 -0.703,0.488 -2.023,0.734 -3.957,0.734 v 2.199 z m -12.32,-33.222 c -2.168,4.961 -4.825,7.441 -7.961,7.441 -1.086,0 -1.981,-0.351 -2.688,-1.047 -1.082,-1.086 -1.973,-2.988 -2.66,-5.715 -0.688,-2.722 -1.035,-6.898 -1.035,-12.523 0,-6.184 0.383,-10.762 1.144,-13.73 0.762,-2.969 1.805,-5.118 3.125,-6.446 0.676,-0.664 1.598,-0.996 2.77,-0.996 2.582,0 5.015,2.41 7.305,7.234 z"
       style="fill:#ffffff;fill-opacity:1;fill-rule:nonzero;stroke:none"
       transform="matrix(1.3333333,0,0,-1.3333333,0,1536)" />
    <path
       id="path21"
       d="m 759.074,955.605 c 5.664,-1.574 9.637,-3.476 11.926,-5.714 3.285,-3.176 4.926,-7.301 4.926,-12.368 0,-5.343 -1.805,-9.761 -5.41,-13.257 -4.43,-4.227 -10.868,-6.34 -19.317,-6.34 h -30.312 v 1.937 c 2.758,0 4.625,0.309 5.609,0.918 0.981,0.614 1.672,1.407 2.067,2.387 0.398,0.977 0.593,3.387 0.593,7.23 v 46.114 c 0,3.843 -0.195,6.261 -0.593,7.258 -0.395,0.996 -1.09,1.793 -2.09,2.386 -0.996,0.594 -2.86,0.891 -5.586,0.891 v 1.937 h 28.597 c 6.832,0 11.672,-0.722 14.52,-2.175 2.844,-1.45 5.09,-3.614 6.73,-6.496 1.645,-2.883 2.465,-5.95 2.465,-9.196 0,-3.426 -1.043,-6.472 -3.125,-9.144 -2.082,-2.676 -5.75,-4.797 -11,-6.368 z m -16.015,1.415 c 4.168,0 7.238,0.558 9.218,1.675 1.981,1.118 3.5,2.692 4.555,4.719 1.055,2.024 1.582,4.609 1.582,7.754 0,3.145 -0.519,5.719 -1.559,7.73 -1.042,2.008 -2.531,3.536 -4.468,4.586 -1.934,1.047 -5.043,1.555 -9.328,1.52 z m 0,-4.086 v -22.797 l -0.043,-2.621 c 0,-1.887 0.402,-3.309 1.211,-4.27 0.804,-0.961 2,-1.441 3.586,-1.441 2.347,0 4.507,0.621 6.488,1.859 1.98,1.242 3.5,3.039 4.554,5.399 1.055,2.359 1.583,4.988 1.586,7.886 -0.003,3.317 -0.648,6.297 -1.937,8.934 -1.289,2.637 -3.066,4.48 -5.324,5.527 -2.258,1.051 -5.633,1.555 -10.121,1.524 z"
       style="fill:#ffffff;fill-opacity:1;fill-rule:nonzero;stroke:none"
       transform="matrix(1.3333333,0,0,-1.3333333,0,1536)" />
    <path
       id="path22"
       d="m 801.094,915.934 -13.289,36.316 c -1.992,5.484 -3.469,8.855 -4.422,10.113 -0.953,1.258 -2.102,2.133 -3.453,2.621 v 1.938 h 21.867 v -1.938 c -1.438,-0.07 -2.449,-0.402 -3.035,-0.996 -0.586,-0.593 -0.879,-1.308 -0.879,-2.148 0,-1.328 0.73,-3.949 2.199,-7.86 l 7.039,-19.179 4.797,14.828 c 1.73,5.277 2.594,8.945 2.594,11.008 0,1.289 -0.36,2.32 -1.078,3.09 -0.719,0.769 -1.989,1.187 -3.805,1.257 v 1.938 h 13.769 v -1.938 c -1.347,-0.175 -2.449,-0.793 -3.296,-1.859 -0.852,-1.066 -2.274,-4.691 -4.27,-10.875 l -11.746,-36.316 c -2.965,-9.082 -5.164,-14.672 -6.602,-16.77 -2.023,-2.934 -4.558,-4.398 -7.609,-4.398 -2.437,0 -4.41,0.828 -5.918,2.488 -1.512,1.66 -2.266,3.66 -2.266,6 0,2.027 0.52,3.703 1.563,5.031 1.039,1.328 2.324,1.988 3.848,1.988 1.468,0 2.648,-0.558 3.543,-1.675 0.894,-1.118 1.355,-2.848 1.386,-5.188 0.028,-1.328 0.16,-2.183 0.395,-2.566 0.234,-0.387 0.57,-0.578 1.012,-0.578 0.703,0 1.453,0.507 2.242,1.519 1.175,1.469 2.554,4.82 4.136,10.063 z"
       style="fill:#ffffff;fill-opacity:1;fill-rule:nonzero;stroke:none"
       transform="matrix(1.3333333,0,0,-1.3333333,0,1536)" />
    <path
       id="path23"
       d="m 356.363,859.953 v -3.769 c -5.172,-0.883 -9.09,-2.442 -11.746,-4.684 -3.808,-3.328 -7.187,-8.418 -10.133,-15.277 l -50.98,-117.524 h -3.988 L 224.762,837.75 c -2.801,6.113 -4.778,9.848 -5.93,11.203 -1.797,2.106 -4.004,3.754 -6.629,4.942 -2.621,1.187 -6.16,1.949 -10.613,2.289 v 3.769 h 59.711 v -3.769 c -6.754,-0.61 -11.141,-1.696 -13.153,-3.258 -2.011,-1.563 -3.015,-3.567 -3.015,-6.008 0,-3.395 1.652,-8.691 4.957,-15.887 l 37.183,-80.965 34.493,79.946 c 3.379,7.875 5.066,13.34 5.066,16.394 0,1.969 -1.043,3.856 -3.125,5.653 -2.086,1.8 -5.605,3.074 -10.562,3.82 -0.36,0.066 -0.973,0.172 -1.832,0.305 v 3.769 z"
       style="fill:#ffffff;fill-opacity:1;fill-rule:nonzero;stroke:none"
       transform="matrix(1.3333333,0,0,-1.3333333,0,1536)" />
    <path
       id="path24"
       d="m 427.285,725.625 v -3.77 h -62.621 v 3.77 h 5.172 c 6.035,0 10.418,1.66 13.148,4.988 1.727,2.172 2.59,7.403 2.59,15.684 v 89.215 c 0,6.992 -0.469,11.609 -1.402,13.851 -0.719,1.696 -2.192,3.157 -4.418,4.379 -3.164,1.629 -6.469,2.442 -9.918,2.442 h -5.172 v 3.769 h 62.621 v -3.769 h -5.281 c -5.965,0 -10.313,-1.664 -13.043,-4.989 -1.797,-2.172 -2.695,-7.402 -2.695,-15.683 v -89.215 c 0,-6.992 0.468,-11.609 1.402,-13.852 0.719,-1.695 2.227,-3.156 4.527,-4.379 3.09,-1.628 6.36,-2.441 9.809,-2.441 z"
       style="fill:#ffffff;fill-opacity:1;fill-rule:nonzero;stroke:none"
       transform="matrix(1.3333333,0,0,-1.3333333,0,1536)" />
    <path
       id="path25"
       d="m 534.098,863.109 v -47.761 h -3.989 c -1.293,9.164 -3.609,16.461 -6.953,21.894 -3.34,5.43 -8.101,9.742 -14.281,12.934 -6.18,3.191 -12.574,4.785 -19.184,4.785 -7.472,0 -13.652,-2.152 -18.539,-6.465 -4.886,-4.312 -7.328,-9.219 -7.328,-14.715 0,-4.211 1.543,-8.047 4.633,-11.511 4.457,-5.09 15.055,-11.879 31.797,-20.368 13.652,-6.925 22.976,-12.238 27.969,-15.937 4.992,-3.699 8.84,-8.063 11.531,-13.086 2.695,-5.024 4.043,-10.285 4.043,-15.785 0,-10.457 -4.293,-19.469 -12.879,-27.039 -8.586,-7.571 -19.637,-11.356 -33.145,-11.356 -4.238,0 -8.226,0.305 -11.964,0.914 -2.227,0.34 -6.844,1.578 -13.848,3.719 -7.008,2.137 -11.445,3.207 -13.313,3.207 -1.796,0 -3.214,-0.508 -4.257,-1.527 -1.039,-1.02 -1.813,-3.121 -2.317,-6.313 h -3.988 v 47.356 h 3.988 c 1.867,-9.914 4.383,-17.332 7.547,-22.254 3.16,-4.922 7.992,-9.012 14.496,-12.27 6.5,-3.261 13.633,-4.89 21.395,-4.89 8.98,0 16.078,2.242 21.285,6.722 5.211,4.481 7.816,9.778 7.816,15.887 0,3.395 -0.988,6.824 -2.965,10.285 -1.976,3.465 -5.046,6.688 -9.214,9.676 -2.805,2.039 -10.457,6.367 -22.957,12.984 -12.504,6.621 -21.395,11.899 -26.676,15.836 -5.285,3.942 -9.289,8.285 -12.02,13.039 -2.73,4.75 -4.097,9.981 -4.097,15.684 0,9.91 4.027,18.449 12.074,25.613 8.047,7.16 18.285,10.742 30.719,10.742 7.757,0 15.984,-1.796 24.679,-5.398 4.024,-1.695 6.864,-2.543 8.516,-2.543 1.867,0 3.394,0.523 4.582,1.578 1.184,1.051 2.137,3.172 2.855,6.363 z"
       style="fill:#ffffff;fill-opacity:1;fill-rule:nonzero;stroke:none"
       transform="matrix(1.3333333,0,0,-1.3333333,0,1536)" />
    <path
       id="path26"
       d="m 623.879,725.625 v -3.77 h -62.621 v 3.77 h 5.172 c 6.039,0 10.422,1.66 13.152,4.988 1.723,2.172 2.586,7.403 2.586,15.684 v 89.215 c 0,6.992 -0.469,11.609 -1.402,13.851 -0.719,1.696 -2.192,3.157 -4.418,4.379 -3.16,1.629 -6.469,2.442 -9.918,2.442 h -5.172 v 3.769 h 62.621 v -3.769 h -5.281 c -5.965,0 -10.313,-1.664 -13.039,-4.989 -1.797,-2.172 -2.696,-7.402 -2.696,-15.683 v -89.215 c 0,-6.992 0.465,-11.609 1.399,-13.852 0.718,-1.695 2.23,-3.156 4.527,-4.379 3.09,-1.628 6.359,-2.441 9.809,-2.441 z"
       style="fill:#ffffff;fill-opacity:1;fill-rule:nonzero;stroke:none"
       transform="matrix(1.3333333,0,0,-1.3333333,0,1536)" />
    <path
       id="path27"
       d="m 710.215,863.109 c 18.969,0 35.406,-6.804 49.308,-20.418 13.903,-13.613 20.856,-30.605 20.856,-50.972 0,-20.981 -7.004,-38.395 -21.016,-52.246 -14.011,-13.848 -30.968,-20.774 -50.875,-20.774 -20.117,0 -37.023,6.754 -50.711,20.266 -13.687,13.512 -20.531,30.992 -20.531,52.449 0,21.93 7.902,39.82 23.711,53.672 13.723,12.016 30.145,18.023 49.258,18.023 z m -2.051,-7.433 c -13.078,0 -23.566,-4.582 -31.473,-13.75 -9.843,-11.406 -14.765,-28.106 -14.765,-50.106 0,-22.539 5.101,-39.886 15.304,-52.043 7.833,-9.23 18.18,-13.847 31.043,-13.847 13.723,0 25.059,5.058 34.004,15.172 8.946,10.117 13.422,26.074 13.422,47.867 0,23.629 -4.926,41.246 -14.769,52.855 -7.903,9.235 -18.825,13.852 -32.766,13.852 z"
       style="fill:#ffffff;fill-opacity:1;fill-rule:nonzero;stroke:none"
       transform="matrix(1.3333333,0,0,-1.3333333,0,1536)" />
    <path
       id="path28"
       d="m 786.094,859.953 h 39.664 l 89.351,-103.574 v 79.641 c 0,8.488 -1.007,13.781 -3.019,15.886 -2.66,2.852 -6.863,4.278 -12.61,4.278 h -5.066 v 3.769 h 50.871 v -3.769 h -5.172 c -6.179,0 -10.562,-1.766 -13.148,-5.293 -1.582,-2.176 -2.371,-7.129 -2.371,-14.871 V 719.613 h -3.883 l -96.356,111.211 v -85.035 c 0,-8.488 0.969,-13.785 2.911,-15.887 2.73,-2.851 6.933,-4.277 12.609,-4.277 h 5.176 v -3.77 h -50.875 v 3.77 h 5.066 c 6.25,0 10.668,1.762 13.258,5.293 1.578,2.172 2.371,7.129 2.371,14.871 v 96.035 c -4.242,4.684 -7.457,7.774 -9.648,9.27 -2.192,1.492 -5.407,2.883 -9.645,4.176 -2.086,0.609 -5.246,0.914 -9.484,0.914 z"
       style="fill:#ffffff;fill-opacity:1;fill-rule:nonzero;stroke:none"
       transform="matrix(1.3333333,0,0,-1.3333333,0,1536)" />
    <path
       id="path29"
       d="m 885.508,594.34 c 0,-63.344 -131.059,-114.754 -292.543,-114.754 -161.481,0 -292.539,51.41 -292.539,114.754 0,63.344 131.058,114.754 292.539,114.754 161.484,0 292.543,-51.41 292.543,-114.754 z"
       style="fill:#ffffff;fill-opacity:1;fill-rule:nonzero;stroke:none"
       transform="matrix(1.3333333,0,0,-1.3333333,0,1536)" />
    <path
       id="path30"
       d="m 808.09,671.176 v -4.84 C 793.371,665.289 780.242,661.844 768.707,656 760.352,651.641 747.922,641.391 731.414,625.258 L 592.082,489.719 h -9.844 L 443.504,630.75 c -16.707,17.008 -27.895,26.996 -33.563,29.961 -5.668,2.965 -16.359,4.84 -32.074,5.625 v 4.84 h 193.93 v -4.84 h -6.567 c -17.5,0 -29.437,-0.961 -35.8,-2.879 -4.575,-1.309 -6.864,-3.227 -6.864,-5.754 0,-1.57 0.797,-3.426 2.387,-5.562 1.594,-2.137 6.965,-7.871 16.113,-17.203 l 86.223,-88.309 79.957,78.629 c 9.547,9.504 15.414,15.871 17.602,19.097 2.187,3.231 3.285,5.977 3.285,8.243 0,2.617 -1.594,4.929 -4.774,6.933 -3.183,2.008 -7.859,3.535 -14.023,4.582 -8.555,1.481 -19.891,2.223 -34.012,2.223 v 4.84 z"
       style="fill:#007ac2;fill-opacity:1;fill-rule:nonzero;stroke:none"
       transform="matrix(1.3333333,0,0,-1.3333333,0,1536)" />
    <path
       id="path31"
       d="m 269.707,488.996 v -58.098 h -4.66 c -1.508,11.149 -4.215,20.028 -8.117,26.633 -3.903,6.606 -9.465,11.852 -16.684,15.735 -7.215,3.879 -14.687,5.82 -22.406,5.82 -8.731,0 -15.945,-2.621 -21.652,-7.867 -5.708,-5.242 -8.563,-11.211 -8.563,-17.899 0,-5.121 1.805,-9.789 5.414,-14 5.203,-6.195 17.582,-14.453 37.137,-24.777 15.945,-8.422 26.836,-14.887 32.668,-19.387 5.836,-4.5 10.324,-9.808 13.472,-15.918 3.145,-6.113 4.719,-12.511 4.719,-19.203 0,-12.719 -5.015,-23.68 -15.043,-32.89 -10.027,-9.207 -22.933,-13.813 -38.711,-13.813 -4.953,0 -9.609,0.371 -13.972,1.113 -2.602,0.414 -7.996,1.922 -16.18,4.524 -8.184,2.601 -13.363,3.902 -15.547,3.902 -2.098,0 -3.754,-0.621 -4.973,-1.859 -1.214,-1.239 -2.117,-3.797 -2.707,-7.68 h -4.656 v 57.606 h 4.656 c 2.184,-12.059 5.121,-21.083 8.813,-27.067 3.695,-5.988 9.336,-10.965 16.933,-14.93 7.594,-3.964 15.926,-5.945 24.989,-5.945 10.492,0 18.777,2.723 24.863,8.176 6.086,5.449 9.129,11.891 9.129,19.324 0,4.129 -1.156,8.301 -3.465,12.512 -2.305,4.215 -5.894,8.137 -10.762,11.769 -3.273,2.477 -12.211,7.743 -26.816,15.797 -14.602,8.051 -24.988,14.473 -31.156,19.262 -6.168,4.789 -10.848,10.078 -14.035,15.859 -3.192,5.782 -4.786,12.141 -4.786,19.078 0,12.055 4.7,22.442 14.098,31.157 9.402,8.711 21.359,13.066 35.879,13.066 9.066,0 18.676,-2.187 28.832,-6.562 4.699,-2.067 8.012,-3.098 9.945,-3.098 2.18,0 3.965,0.641 5.348,1.918 1.387,1.281 2.496,3.863 3.336,7.742 z"
       style="fill:#ffffff;fill-opacity:1;fill-rule:nonzero;stroke:none"
       transform="matrix(1.3333333,0,0,-1.3333333,0,1536)" />
    <path
       id="path32"
       d="m 322.453,387.91 c -0.082,-16.847 4.07,-30.062 12.465,-39.644 8.391,-9.578 18.254,-14.368 29.582,-14.368 7.555,0 14.121,2.043 19.703,6.129 5.582,4.09 10.262,11.09 14.039,21 l 3.903,-2.476 c -1.766,-11.317 -6.883,-21.617 -15.36,-30.91 -8.476,-9.293 -19.094,-13.938 -31.851,-13.938 -13.848,0 -25.704,5.309 -35.563,15.918 -9.863,10.613 -14.793,24.883 -14.793,42.805 0,19.406 5.055,34.539 15.168,45.402 10.113,10.86 22.809,16.289 38.082,16.289 12.926,0 23.543,-4.191 31.852,-12.574 8.308,-8.383 12.465,-19.594 12.465,-33.633 z m 0,7.184 h 53.379 c -0.418,7.269 -1.301,12.39 -2.644,15.363 -2.098,4.625 -5.223,8.258 -9.379,10.902 -4.153,2.641 -8.496,3.961 -13.028,3.961 -6.968,0 -13.199,-2.66 -18.695,-7.988 -5.5,-5.328 -8.707,-12.738 -9.633,-22.238 z"
       style="fill:#ffffff;fill-opacity:1;fill-rule:nonzero;stroke:none"
       transform="matrix(1.3333333,0,0,-1.3333333,0,1536)" />
    <path
       id="path33"
       d="m 515.32,360.285 c -3.105,-14.949 -9.191,-26.449 -18.254,-34.504 -9.066,-8.051 -19.093,-12.078 -30.089,-12.078 -13.094,0 -24.508,5.41 -34.243,16.231 -9.734,10.816 -14.601,25.437 -14.601,43.851 0,17.84 5.39,32.336 16.176,43.485 10.785,11.148 23.73,16.722 38.836,16.722 11.332,0 20.648,-2.949 27.949,-8.855 7.301,-5.907 10.953,-12.039 10.953,-18.399 0,-3.136 -1.031,-5.675 -3.086,-7.617 -2.055,-1.941 -4.93,-2.91 -8.625,-2.91 -4.949,0 -8.684,1.566 -11.203,4.707 -1.426,1.734 -2.371,5.035 -2.832,9.91 -0.461,4.871 -2.16,8.59 -5.098,11.149 -2.937,2.476 -7.008,3.718 -12.211,3.718 -8.394,0 -15.148,-3.058 -20.269,-9.168 -6.797,-8.093 -10.196,-18.789 -10.196,-32.086 0,-13.546 3.375,-25.5 10.133,-35.863 6.754,-10.367 15.883,-15.547 27.379,-15.547 8.227,0 15.613,2.766 22.16,8.297 4.614,3.801 9.106,10.695 13.469,20.692 z"
       style="fill:#ffffff;fill-opacity:1;fill-rule:nonzero;stroke:none"
       transform="matrix(1.3333333,0,0,-1.3333333,0,1536)" />
    <path
       id="path34"
       d="m 632.773,430.648 v -68.753 c 0,-13.133 0.317,-21.165 0.946,-24.094 0.629,-2.934 1.636,-4.977 3.023,-6.133 1.383,-1.156 3,-1.734 4.844,-1.734 2.602,0 5.539,0.699 8.812,2.105 l 1.762,-4.336 -34.492,-14 h -5.664 v 24.035 c -9.906,-10.574 -17.457,-17.222 -22.66,-19.945 -5.203,-2.727 -10.703,-4.09 -16.492,-4.09 -6.465,0 -12.067,1.84 -16.809,5.512 -4.742,3.676 -8.035,8.406 -9.883,14.187 -1.844,5.782 -2.769,13.957 -2.769,24.528 v 50.668 c 0,5.367 -0.586,9.086 -1.762,11.148 -1.176,2.067 -2.914,3.656 -5.223,4.77 -2.308,1.117 -6.484,1.632 -12.527,1.55 v 4.582 h 40.41 v -75.937 c 0,-10.574 1.867,-17.512 5.602,-20.813 3.738,-3.304 8.246,-4.957 13.535,-4.957 3.609,0 7.699,1.114 12.273,3.344 4.574,2.231 10.008,6.485 16.305,12.762 v 64.293 c 0,6.441 -1.195,10.801 -3.59,13.07 -2.391,2.274 -7.363,3.488 -14.918,3.656 v 4.582 z"
       style="fill:#ffffff;fill-opacity:1;fill-rule:nonzero;stroke:none"
       transform="matrix(1.3333333,0,0,-1.3333333,0,1536)" />
    <path
       id="path35"
       d="m 694.336,433.992 v -25.519 c 9.652,17.015 19.555,25.519 29.711,25.519 4.613,0 8.433,-1.383 11.453,-4.148 3.023,-2.766 4.535,-5.969 4.535,-9.602 0,-3.219 -1.094,-5.945 -3.273,-8.176 -2.184,-2.23 -4.785,-3.343 -7.805,-3.343 -2.937,0 -6.234,1.422 -9.883,4.273 -3.652,2.848 -6.359,4.274 -8.121,4.274 -1.512,0 -3.148,-0.825 -4.91,-2.477 -3.777,-3.387 -7.68,-8.961 -11.707,-16.727 v -54.382 c 0,-6.278 0.797,-11.028 2.391,-14.246 1.089,-2.231 3.023,-4.09 5.793,-5.575 2.769,-1.488 6.753,-2.23 11.957,-2.23 v -4.461 h -59.043 v 4.461 c 5.875,0 10.242,0.906 13.093,2.726 2.098,1.321 3.567,3.426 4.407,6.317 0.421,1.402 0.629,5.41 0.629,12.015 v 43.981 c 0,13.211 -0.274,21.078 -0.817,23.598 -0.547,2.519 -1.555,4.355 -3.023,5.511 -1.469,1.157 -3.293,1.735 -5.477,1.735 -2.601,0 -5.539,-0.618 -8.812,-1.856 l -1.258,4.457 34.871,13.875 z"
       style="fill:#ffffff;fill-opacity:1;fill-rule:nonzero;stroke:none"
       transform="matrix(1.3333333,0,0,-1.3333333,0,1536)" />
    <path
       id="path36"
       d="m 776.039,493.332 c 3.524,0 6.524,-1.219 9,-3.652 2.477,-2.438 3.715,-5.391 3.715,-8.86 0,-3.468 -1.238,-6.441 -3.715,-8.918 -2.476,-2.476 -5.476,-3.718 -9,-3.718 -3.527,0 -6.547,1.242 -9.066,3.718 -2.516,2.477 -3.774,5.45 -3.774,8.918 0,3.469 1.235,6.422 3.711,8.86 2.477,2.433 5.52,3.652 9.129,3.652 z m 10.449,-59.34 v -91.176 c 0,-7.101 0.524,-11.832 1.575,-14.183 1.046,-2.356 2.601,-4.11 4.656,-5.266 2.054,-1.156 5.812,-1.734 11.265,-1.734 v -4.461 h -56.019 v 4.461 c 5.621,0 9.398,0.535 11.332,1.609 1.93,1.074 3.461,2.852 4.594,5.328 1.132,2.477 1.699,7.227 1.699,14.246 v 43.731 c 0,12.305 -0.379,20.273 -1.133,23.91 -0.59,2.641 -1.512,4.481 -2.769,5.512 -1.258,1.031 -2.981,1.547 -5.165,1.547 -2.347,0 -5.203,-0.618 -8.558,-1.856 l -1.762,4.457 34.746,13.875 z"
       style="fill:#ffffff;fill-opacity:1;fill-rule:nonzero;stroke:none"
       transform="matrix(1.3333333,0,0,-1.3333333,0,1536)" />
    <path
       id="path37"
       d="m 851.699,467.938 v -37.29 h 26.942 v -8.671 h -26.942 v -73.586 c 0,-7.352 1.071,-12.305 3.211,-14.868 2.141,-2.558 4.887,-3.839 8.246,-3.839 2.77,0 5.453,0.847 8.055,2.539 2.602,1.695 4.617,4.191 6.043,7.496 h 4.91 c -2.937,-8.094 -7.09,-14.184 -12.465,-18.274 -5.371,-4.086 -10.91,-6.132 -16.617,-6.132 -3.859,0 -7.637,1.054 -11.328,3.16 -3.695,2.105 -6.422,5.121 -8.184,9.043 -1.761,3.925 -2.644,9.972 -2.644,18.148 v 76.313 h -18.254 v 4.089 c 4.617,1.817 9.336,4.891 14.164,9.227 4.824,4.336 9.125,9.477 12.902,15.426 1.93,3.136 4.617,8.879 8.059,17.219 z"
       style="fill:#ffffff;fill-opacity:1;fill-rule:nonzero;stroke:none"
       transform="matrix(1.3333333,0,0,-1.3333333,0,1536)" />
    <path
       id="path38"
       d="m 883.172,430.648 h 53.754 v -4.582 h -2.645 c -3.773,0 -6.609,-0.804 -8.496,-2.418 -1.887,-1.609 -2.832,-3.613 -2.832,-6.007 0,-3.219 1.383,-7.68 4.152,-13.379 l 28.075,-57.235 25.808,62.684 c 1.426,3.387 2.141,6.734 2.141,10.035 0,1.488 -0.293,2.602 -0.883,3.348 -0.672,0.906 -1.719,1.629 -3.144,2.168 -1.43,0.535 -3.946,0.804 -7.555,0.804 v 4.582 h 37.516 v -4.582 c -3.106,-0.332 -5.497,-0.992 -7.176,-1.984 -1.68,-0.988 -3.528,-2.848 -5.539,-5.574 -0.758,-1.156 -2.184,-4.336 -4.282,-9.539 L 945.109,295.742 c -4.531,-10.984 -10.468,-19.285 -17.812,-24.902 -7.344,-5.617 -14.414,-8.422 -21.215,-8.422 -4.949,0 -9.019,1.402 -12.211,4.211 -3.187,2.809 -4.781,6.027 -4.781,9.664 0,3.469 1.152,6.254 3.461,8.359 2.308,2.106 5.476,3.161 9.504,3.161 2.769,0 6.547,-0.911 11.332,-2.727 3.355,-1.238 5.453,-1.856 6.293,-1.856 2.519,0 5.265,1.278 8.246,3.84 2.98,2.559 5.98,7.516 9,14.864 l 8.183,19.699 -41.418,85.601 c -1.257,2.563 -3.273,5.743 -6.043,9.539 -2.097,2.891 -3.816,4.832 -5.16,5.825 -1.929,1.32 -5.035,2.476 -9.316,3.468 z"
       style="fill:#ffffff;fill-opacity:1;fill-rule:nonzero;stroke:none"
       transform="matrix(1.3333333,0,0,-1.3333333,0,1536)" />
    <path
       id="path39"
       d="m 366.156,212.457 -1.984,-26.848 h -46.867 v 2.086 h 1.754 c 1.531,0 2.761,0.395 3.695,1.184 0.676,0.527 1.195,1.43 1.559,2.707 0.285,0.902 0.429,3.273 0.429,7.105 v 50.313 c 0,3.91 -0.144,6.355 -0.429,7.332 -0.286,0.977 -0.864,1.832 -1.731,2.566 -0.871,0.735 -2.043,1.102 -3.523,1.102 h -1.754 v 2.086 h 28.144 v -2.086 h -2.297 c -1.531,0 -2.765,-0.395 -3.699,-1.188 -0.672,-0.523 -1.207,-1.425 -1.594,-2.707 -0.285,-0.902 -0.429,-3.269 -0.429,-7.105 v -48.731 c 0,-3.91 0.156,-6.402 0.468,-7.476 0.309,-1.07 0.918,-1.867 1.829,-2.395 0.648,-0.339 2.218,-0.507 4.711,-0.507 h 4.398 c 2.801,0 5.137,0.714 7.004,2.144 1.871,1.426 3.484,3.684 4.848,6.766 1.363,3.086 2.652,7.633 3.871,13.652 z"
       style="fill:#ffffff;fill-opacity:1;fill-rule:nonzero;stroke:none"
       transform="matrix(1.3333333,0,0,-1.3333333,0,1536)" />
    <path
       id="path40"
       d="m 388.926,239.922 c 3.168,0 6.109,-1.184 8.836,-3.551 2.726,-2.371 4.793,-5.734 6.207,-10.098 1.414,-4.363 2.121,-9.136 2.121,-14.324 0,-7.484 -1.309,-13.746 -3.93,-18.785 -3.164,-6.09 -7.539,-9.137 -13.117,-9.137 -5.477,0 -9.691,2.786 -12.648,8.348 -2.961,5.566 -4.438,12.016 -4.438,19.348 0,7.558 1.512,14.148 4.531,19.769 3.024,5.621 7.172,8.43 12.438,8.43 z m 0.156,-4.004 c -1.324,0 -2.457,-0.723 -3.406,-2.172 -0.946,-1.445 -1.571,-4.305 -1.867,-8.57 -0.301,-4.27 -0.45,-10.203 -0.45,-17.797 0,-4.024 0.184,-7.785 0.547,-11.281 0.285,-2.668 0.895,-4.7 1.828,-6.09 0.934,-1.391 1.996,-2.086 3.192,-2.086 1.168,0 2.14,0.469 2.918,1.406 1.011,1.281 1.687,3.067 2.027,5.36 0.516,3.574 0.777,10.792 0.777,21.66 0,6.39 -0.246,10.781 -0.738,13.168 -0.496,2.39 -1.222,4.129 -2.18,5.218 -0.675,0.789 -1.558,1.184 -2.648,1.184 z"
       style="fill:#ffffff;fill-opacity:1;fill-rule:nonzero;stroke:none"
       transform="matrix(1.3333333,0,0,-1.3333333,0,1536)" />
    <path
       id="path41"
       d="m 441.316,199.199 1.207,-1.351 c -1.71,-4.664 -3.847,-8.133 -6.402,-10.407 -2.555,-2.277 -5.273,-3.414 -8.156,-3.414 -4.852,0 -8.731,2.653 -11.637,7.953 -2.906,5.301 -4.359,11.676 -4.359,19.122 0,7.183 1.324,13.5 3.969,18.949 3.191,6.582 7.589,9.871 13.195,9.871 3.765,0 6.754,-1.371 8.972,-4.117 2.219,-2.742 3.329,-5.809 3.329,-9.192 0,-2.144 -0.446,-3.855 -1.344,-5.133 -0.895,-1.281 -2.067,-1.917 -3.52,-1.917 -1.531,0 -2.797,0.734 -3.797,2.199 -1,1.465 -1.613,4.078 -1.847,7.84 -0.156,2.367 -0.531,4.023 -1.129,4.964 -0.598,0.938 -1.297,1.411 -2.102,1.411 -1.246,0 -2.312,-0.961 -3.191,-2.879 -1.352,-2.895 -2.027,-7.332 -2.027,-13.309 0,-4.965 0.546,-9.711 1.636,-14.242 1.09,-4.531 2.582,-7.906 4.477,-10.125 1.426,-1.617 3.113,-2.426 5.058,-2.426 1.274,0 2.481,0.434 3.622,1.297 1.14,0.867 2.492,2.5 4.046,4.906 z"
       style="fill:#ffffff;fill-opacity:1;fill-rule:nonzero;stroke:none"
       transform="matrix(1.3333333,0,0,-1.3333333,0,1536)" />
    <path
       id="path42"
       d="m 467.047,193.391 c -4.438,-5.676 -8.422,-8.516 -11.949,-8.516 -2.078,0 -3.805,0.984 -5.18,2.961 -1.375,1.973 -2.063,4.445 -2.063,7.418 0,4.023 1.196,7.641 3.583,10.855 2.386,3.215 7.589,7.493 15.609,12.832 v 5.301 c 0,3.988 -0.149,6.496 -0.449,7.531 -0.297,1.036 -0.864,1.938 -1.692,2.707 -0.832,0.77 -1.765,1.157 -2.804,1.157 -1.688,0 -3.075,-0.547 -4.164,-1.637 -0.676,-0.676 -1.012,-1.465 -1.012,-2.367 0,-0.789 0.363,-1.77 1.09,-2.934 0.984,-1.617 1.48,-3.176 1.48,-4.679 0,-1.844 -0.476,-3.415 -1.422,-4.711 -0.949,-1.297 -2.187,-1.946 -3.719,-1.946 -1.632,0 -3.003,0.715 -4.105,2.141 -1.102,1.43 -1.652,3.105 -1.652,5.019 0,2.711 0.738,5.293 2.218,7.758 1.477,2.461 3.539,4.352 6.188,5.668 2.644,1.317 5.398,1.973 8.25,1.973 3.453,0 6.184,-1.063 8.195,-3.184 2.012,-2.125 3.317,-4.429 3.91,-6.91 0.364,-1.582 0.547,-5.207 0.547,-10.887 v -20.472 c 0,-2.406 0.063,-3.922 0.196,-4.543 0.128,-0.621 0.324,-1.078 0.582,-1.379 0.261,-0.305 0.558,-0.453 0.894,-0.453 0.676,0 1.363,0.695 2.063,2.086 l 1.168,-1.352 c -1.297,-2.785 -2.641,-4.805 -4.028,-6.062 -1.386,-1.262 -2.965,-1.891 -4.73,-1.891 -2.074,0 -3.696,0.703 -4.863,2.113 -1.168,1.41 -1.883,3.547 -2.141,6.403 z m 0,4.117 v 17.656 c -3.141,-2.672 -5.477,-5.527 -7.008,-8.574 -1.012,-2.031 -1.516,-4.082 -1.516,-6.149 0,-1.73 0.426,-3.253 1.282,-4.57 0.648,-1.012 1.558,-1.519 2.726,-1.519 1.297,0 2.801,1.05 4.516,3.156 z"
       style="fill:#ffffff;fill-opacity:1;fill-rule:nonzero;stroke:none"
       transform="matrix(1.3333333,0,0,-1.3333333,0,1536)" />
    <path
       id="path43"
       d="m 501.066,262.09 v -65.539 c 0,-3.723 0.297,-6.102 0.895,-7.137 0.598,-1.035 1.766,-1.625 3.504,-1.777 v -2.028 h -19.656 v 2.028 c 1.605,0.078 2.8,0.754 3.578,2.031 0.519,0.867 0.781,3.16 0.781,6.883 v 54.597 c 0,3.684 -0.301,6.043 -0.898,7.079 -0.594,1.035 -1.75,1.625 -3.461,1.777 v 2.086 z"
       style="fill:#ffffff;fill-opacity:1;fill-rule:nonzero;stroke:none"
       transform="matrix(1.3333333,0,0,-1.3333333,0,1536)" />
    <path
       id="path44"
       d="m 523.176,262.09 v -65.539 c -0.004,-3.723 0.297,-6.102 0.894,-7.137 0.594,-1.035 1.762,-1.625 3.5,-1.777 v -2.028 h -19.656 v 2.028 c 1.609,0.078 2.805,0.754 3.582,2.031 0.52,0.867 0.777,3.16 0.777,6.883 v 54.597 c 0,3.684 -0.296,6.043 -0.894,7.079 -0.598,1.035 -1.75,1.625 -3.465,1.777 v 2.086 z"
       style="fill:#ffffff;fill-opacity:1;fill-rule:nonzero;stroke:none"
       transform="matrix(1.3333333,0,0,-1.3333333,0,1536)" />
    <path
       id="path45"
       d="m 547.734,183.465 -11.754,39.086 c -1.765,5.902 -3.07,9.531 -3.914,10.887 -0.843,1.351 -1.859,2.292 -3.054,2.82 v 2.086 h 19.347 v -2.086 c -1.273,-0.074 -2.168,-0.434 -2.687,-1.074 -0.52,-0.637 -0.777,-1.411 -0.777,-2.313 0,-1.426 0.648,-4.246 1.945,-8.457 l 6.226,-20.644 4.243,15.96 c 1.531,5.68 2.296,9.625 2.296,11.844 0,1.391 -0.316,2.5 -0.953,3.328 -0.636,0.828 -1.757,1.282 -3.367,1.356 v 2.086 h 12.184 v -2.086 c -1.196,-0.188 -2.168,-0.856 -2.918,-2.004 -0.754,-1.145 -2.012,-5.047 -3.778,-11.703 l -10.39,-39.086 c -2.621,-9.777 -4.57,-15.793 -5.84,-18.051 -1.789,-3.156 -4.035,-4.738 -6.734,-4.738 -2.153,0 -3.899,0.894 -5.235,2.679 -1.336,1.79 -2.004,3.942 -2.004,6.461 0,2.18 0.461,3.985 1.379,5.414 0.922,1.43 2.059,2.141 3.406,2.141 1.301,0 2.344,-0.601 3.137,-1.805 0.789,-1.203 1.199,-3.062 1.223,-5.582 0.027,-1.429 0.144,-2.351 0.351,-2.765 0.207,-0.414 0.508,-0.617 0.895,-0.617 0.625,0 1.285,0.543 1.984,1.632 1.039,1.582 2.258,5.192 3.66,10.832 z"
       style="fill:#ffffff;fill-opacity:1;fill-rule:nonzero;stroke:none"
       transform="matrix(1.3333333,0,0,-1.3333333,0,1536)" />
    <path
       id="path46"
       d="m 618.926,263.16 c 8.406,0.453 15.238,-3.101 20.492,-10.66 5.258,-7.559 7.883,-17.016 7.883,-28.371 0,-9.699 -1.957,-18.234 -5.875,-25.606 -5.192,-9.777 -12.524,-14.664 -21.992,-14.664 -9.5,0 -16.844,4.664 -22.032,13.989 -4.101,7.367 -6.152,16.113 -6.152,26.226 0,11.356 2.668,20.821 8,28.399 5.332,7.578 11.891,11.14 19.676,10.687 z m 0.469,-3.609 c -4.829,0 -8.5,-3.571 -11.016,-10.715 -2.051,-5.867 -3.074,-14.289 -3.074,-25.27 0,-13.046 1.582,-22.691 4.746,-28.933 2.207,-4.363 5.293,-6.543 9.265,-6.543 2.672,0 4.903,0.937 6.696,2.82 2.281,2.406 4.058,6.25 5.332,11.535 1.269,5.282 1.906,12.172 1.906,20.668 0,10.117 -0.648,17.684 -1.945,22.703 -1.297,5.02 -2.953,8.567 -4.965,10.633 -2.012,2.067 -4.324,3.102 -6.945,3.102 z"
       style="fill:#ffffff;fill-opacity:1;fill-rule:nonzero;stroke:none"
       transform="matrix(1.3333333,0,0,-1.3333333,0,1536)" />
    <path
       id="path47"
       d="m 688.871,184.027 -9.965,38.692 -9.769,-38.692 h -2.024 l -9.691,38.243 c -1.453,5.828 -2.688,9.625 -3.699,11.394 -0.649,1.203 -1.633,2.066 -2.957,2.594 v 2.086 h 18.371 v -2.086 c -1.246,0 -2.102,-0.266 -2.567,-0.789 -0.468,-0.528 -0.703,-1.129 -0.703,-1.805 0,-0.641 0.418,-2.559 1.246,-5.754 l 5.332,-20.586 5.141,20.586 -0.391,1.352 c -0.777,2.82 -1.461,4.617 -2.043,5.386 -0.586,0.774 -1.488,1.309 -2.707,1.61 v 2.086 h 18.645 v -2.086 c -1.453,-0.113 -2.375,-0.406 -2.762,-0.875 -0.39,-0.469 -0.586,-1.137 -0.586,-2.004 0,-0.824 0.379,-2.649 1.129,-5.469 l 5.141,-20.586 4.668,18.949 c 0.675,2.707 1.011,4.551 1.011,5.528 0,1.469 -0.246,2.539 -0.738,3.215 -0.492,0.675 -1.453,1.089 -2.879,1.242 v 2.086 h 10.781 v -2.086 c -1.195,-0.227 -2.14,-0.836 -2.843,-1.832 -0.699,-1 -1.606,-3.828 -2.723,-8.492 L 691.09,184.027 Z"
       style="fill:#ffffff;fill-opacity:1;fill-rule:nonzero;stroke:none"
       transform="matrix(1.3333333,0,0,-1.3333333,0,1536)" />
    <path
       id="path48"
       d="m 725.266,238.344 v -6.824 c 1.867,2.933 3.66,5.066 5.371,6.402 1.715,1.332 3.554,2 5.527,2 2.363,0 4.32,-0.949 5.879,-2.848 1.555,-1.898 2.594,-4.258 3.113,-7.078 0.414,-2.144 0.621,-6.262 0.621,-12.351 v -20.532 c 0,-4.062 0.254,-6.59 0.762,-7.586 0.504,-0.996 1.563,-1.625 3.172,-1.89 v -2.028 h -18.414 v 2.028 c 1.379,0.265 2.363,1.09 2.961,2.484 0.414,0.938 0.621,3.27 0.621,6.992 v 23.465 c 0,4.324 -0.117,7.051 -0.348,8.176 -0.234,1.129 -0.633,2.004 -1.187,2.625 -0.559,0.621 -1.176,0.93 -1.852,0.93 -2.23,0 -4.304,-2.313 -6.226,-6.938 v -28.258 c 0,-3.949 0.254,-6.449 0.757,-7.5 0.508,-1.054 1.45,-1.711 2.825,-1.976 v -2.028 h -18.41 v 2.028 c 1.527,0.226 2.617,0.941 3.269,2.144 0.438,0.828 0.66,3.27 0.66,7.332 v 29.782 c 0,3.984 -0.254,6.468 -0.758,7.445 -0.507,0.976 -1.566,1.617 -3.171,1.918 v 2.086 z"
       style="fill:#ffffff;fill-opacity:1;fill-rule:nonzero;stroke:none"
       transform="matrix(1.3333333,0,0,-1.3333333,0,1536)" />
    <path
       id="path49"
       d="m 785.598,213.863 h -19.969 c 0.234,-6.992 1.519,-12.519 3.855,-16.582 1.789,-3.121 3.942,-4.679 6.461,-4.679 1.555,0 2.969,0.628 4.243,1.89 1.269,1.258 2.632,3.524 4.085,6.797 l 1.325,-1.242 c -1.973,-5.828 -4.153,-9.957 -6.539,-12.379 -2.387,-2.426 -5.153,-3.641 -8.293,-3.641 -5.395,0 -9.485,3.008 -12.258,9.024 -2.235,4.851 -3.348,10.867 -3.348,18.051 0,8.796 1.641,15.8 4.922,21.011 3.285,5.207 7.129,7.809 11.543,7.809 3.684,0 6.883,-2.188 9.594,-6.57 2.711,-4.379 4.172,-10.875 4.379,-19.489 z m -9.575,3.782 c 0,6.054 -0.226,10.207 -0.683,12.464 -0.453,2.254 -1.16,3.965 -2.121,5.133 -0.543,0.676 -1.27,1.016 -2.18,1.016 -1.348,0 -2.453,-0.961 -3.309,-2.879 -1.531,-3.344 -2.296,-7.934 -2.296,-13.762 v -1.972 z"
       style="fill:#ffffff;fill-opacity:1;fill-rule:nonzero;stroke:none"
       transform="matrix(1.3333333,0,0,-1.3333333,0,1536)" />
    <path
       id="path50"
       d="m 825.492,262.09 v -60.692 c 0,-4.097 0.078,-6.523 0.235,-7.273 0.207,-1.242 0.605,-2.164 1.187,-2.766 0.586,-0.601 1.602,-0.976 3.055,-1.125 v -1.863 l -15.375,-4.344 v 8.348 c -1.84,-3.234 -3.481,-5.434 -4.922,-6.598 -1.442,-1.168 -3.07,-1.75 -4.887,-1.75 -4.644,0 -8.316,3.008 -11.015,9.024 -2.18,4.89 -3.27,10.887 -3.27,17.996 0,5.676 0.676,10.762 2.027,15.254 1.348,4.496 3.196,7.887 5.547,10.183 2.348,2.293 4.871,3.438 7.571,3.438 1.738,0 3.281,-0.488 4.628,-1.465 1.352,-0.977 2.79,-2.687 4.321,-5.133 v 15.906 c 0,4.024 -0.114,6.45 -0.348,7.274 -0.312,1.094 -0.781,1.902 -1.402,2.426 -0.621,0.527 -1.789,0.789 -3.504,0.789 v 2.371 z m -10.898,-35.758 c -1.918,5.336 -4.266,8.008 -7.043,8.008 -0.961,0 -1.754,-0.375 -2.375,-1.129 -0.961,-1.164 -1.746,-3.215 -2.356,-6.148 -0.609,-2.934 -0.914,-7.426 -0.914,-13.481 0,-6.656 0.336,-11.582 1.012,-14.777 0.676,-3.196 1.598,-5.508 2.766,-6.938 0.593,-0.715 1.414,-1.07 2.449,-1.07 2.285,0 4.437,2.594 6.461,7.781 z"
       style="fill:#ffffff;fill-opacity:1;fill-rule:nonzero;stroke:none"
       transform="matrix(1.3333333,0,0,-1.3333333,0,1536)" />
  </g>
</svg>
